<?xml version="1.0" encoding="utf-8"?>
<!-- Generator: Adobe Illustrator 16.0.0, SVG Export Plug-In . SVG Version: 6.00 Build 0)  -->
<!DOCTYPE svg PUBLIC "-//W3C//DTD SVG 1.1//EN" "http://www.w3.org/Graphics/SVG/1.1/DTD/svg11.dtd">
<svg version="1.1" id="Layer_1" xmlns="http://www.w3.org/2000/svg" xmlns:xlink="http://www.w3.org/1999/xlink" x="0px" y="0px"
	 width="339px" height="149px" viewBox="0 0 339 149" enable-background="new 0 0 339 149" xml:space="preserve">
<g>
	<polygon fill="#D31E47" points="241.148,17.549 214.825,17.549 211.447,33.442 237.771,33.442 	"/>
	<path fill="#D31E47" d="M279.605,55.793c10.033,0,14.735,3.404,15.365,9.401h27.285c0.893-19.719-15.107-26.785-39.328-26.785
		c-25.061,0-44.02,9.044-52.01,27.278l5.218-24.546h-26.325l-4.846,22.804c-1.139-15.825-13.176-24.543-32.575-24.543
		c-10.679,0-20.81,3.85-27.849,10.679h-0.249l1.9-8.939h-25.579l-10.239,48.178H51.894l2.805-15.105h52.21l3.905-18.377h-52.21
		l2.819-14.799h59.229l4.063-19.121H35.935L18.277,108.44h88.034l-5.172,24.338h26.324l6.465-30.422h0.249
		c3.415,4.967,11.537,8.816,23.208,8.816c19.963,0,35.383-10.295,42.756-24.531l-4.633,21.799h26.324l5.146-24.217
		c0.126,18.332,14.757,26.949,40.484,26.949c29.008,0,44.337-10.535,52.519-29.123h-27.837c-3.724,7.855-10.976,11.738-20.49,11.738
		c-12.665,0-18.415-6.828-15.83-18.997C258.411,62.622,267.313,55.793,279.605,55.793 M177.135,74.915
		c-2.375,11.176-10.223,17.135-22.267,17.135c-12.293,0-17.325-6.705-15.108-17.135s10.099-17.135,22.392-17.135
		C174.195,57.78,179.51,63.739,177.135,74.915z"/>
</g>
</svg>
