<?xml version="1.0" encoding="utf-8"?>
<!-- Generator: Adobe Illustrator 16.0.0, SVG Export Plug-In . SVG Version: 6.00 Build 0)  -->
<!DOCTYPE svg PUBLIC "-//W3C//DTD SVG 1.1//EN" "http://www.w3.org/Graphics/SVG/1.1/DTD/svg11.dtd">
<svg version="1.1" id="Logotype" xmlns="http://www.w3.org/2000/svg" xmlns:xlink="http://www.w3.org/1999/xlink" x="0px" y="0px"
	 width="503px" height="185px" viewBox="0 0 503 185" enable-background="new 0 0 503 185" xml:space="preserve">
<g>
	<path fill="#737373" d="M181.128,100.549l-2.877,8.053h-0.164c-0.515-1.888-1.376-4.563-2.726-7.964L159.964,62.01H144.91v61.412
		h9.928V85.669c0-2.33-0.049-5.146-0.148-8.369c-0.051-1.63-0.235-2.937-0.281-3.933h0.218c0.505,2.314,1.029,4.077,1.409,5.256
		l18.463,44.797h6.946l18.326-45.202c0.416-1.031,0.857-3.042,1.261-4.851h0.218c-0.238,4.474-0.442,8.562-0.47,11.029v39.024
		h10.593V62.01h-14.458L181.128,100.549z"/>
	<rect x="221.346" y="79.412" fill="#737373" width="10.352" height="44.01"/>
	<path fill="#737373" d="M226.628,60.708c-1.707,0-3.19,0.583-4.411,1.73c-1.227,1.151-1.848,2.604-1.848,4.317
		c0,1.686,0.615,3.109,1.828,4.233c1.207,1.119,2.698,1.686,4.431,1.686c1.732,0,3.23-0.567,4.45-1.685
		c1.228-1.125,1.851-2.548,1.851-4.234c0-1.653-0.605-3.089-1.8-4.27C229.935,61.306,228.42,60.708,226.628,60.708z"/>
	<path fill="#737373" d="M268.349,78.972c-1.991-0.412-3.937-0.621-5.786-0.621c-4.75,0-8.986,1.019-12.589,3.027
		c-3.61,2.011-6.404,4.884-8.302,8.538c-1.894,3.644-2.854,7.899-2.854,12.646c0,4.158,0.932,7.973,2.771,11.337
		c1.842,3.371,4.449,6.005,7.748,7.833c3.296,1.825,7.103,2.75,11.316,2.75c4.921,0,9.123-0.983,12.489-2.922l0.137-0.08v-9.482
		l-0.435,0.317c-1.528,1.112-3.232,1.998-5.065,2.636c-1.83,0.638-3.499,0.962-4.96,0.962c-4.062,0-7.322-1.272-9.69-3.778
		c-2.372-2.51-3.575-6.03-3.575-10.464c0-4.462,1.253-8.078,3.725-10.742c2.465-2.66,5.733-4.008,9.708-4.008
		c3.405,0,6.721,1.152,9.857,3.427l0.435,0.315v-9.994l-0.14-0.078C271.958,79.933,270.346,79.387,268.349,78.972z"/>
	<path fill="#737373" d="M302.459,78.648c-2.599,0-4.929,0.834-6.923,2.482c-1.75,1.444-3.015,3.428-3.984,5.901h-0.109v-7.621
		H281.09v44.01h10.353v-22.514c0-3.828,0.869-6.973,2.581-9.347c1.69-2.347,3.944-3.536,6.695-3.536c0.934,0,1.98,0.153,3.114,0.457
		c1.121,0.302,1.934,0.631,2.414,0.976l0.436,0.313V79.335l-0.168-0.071C305.551,78.855,304.186,78.648,302.459,78.648z"/>
	<path fill="#737373" d="M330.576,78.351c-7.258,0-13.021,2.127-17.131,6.321c-4.108,4.193-6.189,9.998-6.189,17.254
		c0,6.891,2.033,12.432,6.042,16.471c4.01,4.037,9.467,6.085,16.217,6.085c7.033,0,12.685-2.155,16.793-6.407
		c4.106-4.248,6.189-9.996,6.189-17.083c0-7.001-1.954-12.583-5.807-16.594C342.834,80.386,337.413,78.351,330.576,78.351z
		 M338.807,112.238c-1.945,2.439-4.871,3.676-8.698,3.676c-3.803,0-6.803-1.26-8.915-3.745c-2.125-2.499-3.204-6.059-3.204-10.583
		c0-4.666,1.079-8.319,3.204-10.859c2.115-2.526,5.085-3.806,8.831-3.806c3.633,0,6.526,1.224,8.598,3.639
		c2.083,2.427,3.138,6.051,3.138,10.771C341.761,106.113,340.768,109.781,338.807,112.238z"/>
	<path fill="#737373" d="M375.455,97.597c-3.264-1.312-5.354-2.398-6.213-3.231c-0.833-0.806-1.255-1.946-1.255-3.389
		c0-1.281,0.522-2.307,1.592-3.136c1.076-0.836,2.577-1.259,4.459-1.259c1.748,0,3.534,0.275,5.311,0.816
		c1.772,0.54,3.333,1.264,4.636,2.149l0.428,0.292V80.27l-0.166-0.072c-1.2-0.514-2.783-0.954-4.706-1.312
		c-1.917-0.354-3.655-0.535-5.165-0.535c-4.937,0-9.02,1.263-12.14,3.753c-3.137,2.503-4.729,5.789-4.729,9.763
		c0,2.066,0.343,3.901,1.02,5.456c0.678,1.563,1.733,2.939,3.133,4.093c1.385,1.144,3.53,2.341,6.369,3.563
		c2.386,0.981,4.166,1.813,5.297,2.469c1.106,0.642,1.891,1.286,2.332,1.915c0.432,0.615,0.651,1.454,0.651,2.495
		c0,2.959-2.215,4.396-6.771,4.396c-1.691,0-3.619-0.353-5.729-1.048c-2.114-0.695-4.088-1.695-5.868-2.975l-0.434-0.313v10.091
		l0.158,0.074c1.484,0.684,3.353,1.262,5.557,1.716c2.203,0.456,4.199,0.685,5.933,0.685c5.359,0,9.671-1.269,12.819-3.772
		c3.167-2.519,4.772-5.883,4.772-9.999c0-2.966-0.862-5.509-2.567-7.56C382.488,101.116,379.553,99.248,375.455,97.597z"/>
	<path fill="#737373" d="M414.584,78.351c-7.258,0-13.021,2.127-17.13,6.321c-4.108,4.193-6.19,9.998-6.19,17.254
		c0,6.891,2.032,12.432,6.043,16.471c4.01,4.037,9.465,6.085,16.216,6.085c7.033,0,12.684-2.155,16.792-6.407
		c4.107-4.248,6.189-9.996,6.189-17.083c0-7.001-1.954-12.583-5.808-16.594C426.843,80.386,421.42,78.351,414.584,78.351z
		 M422.816,112.238c-1.945,2.439-4.872,3.676-8.698,3.676c-3.804,0-6.804-1.26-8.917-3.745c-2.125-2.499-3.202-6.059-3.202-10.583
		c0-4.666,1.078-8.319,3.203-10.859c2.115-2.526,5.085-3.806,8.832-3.806c3.632,0,6.527,1.224,8.599,3.639
		c2.082,2.427,3.138,6.051,3.138,10.771C425.77,106.113,424.775,109.781,422.816,112.238z"/>
	<path fill="#737373" d="M491.704,87.855v-8.443H481.22V66.285l-0.354,0.108l-9.846,3.015l-0.195,0.06v9.944h-15.534v-5.54
		c0-2.579,0.577-4.553,1.717-5.869c1.128-1.304,2.743-1.964,4.799-1.964c1.481,0,3.015,0.35,4.559,1.038l0.385,0.171v-8.892
		l-0.18-0.064c-1.438-0.518-3.397-0.78-5.823-0.78c-3.059,0-5.838,0.668-8.259,1.985c-2.425,1.322-4.333,3.207-5.668,5.604
		c-1.333,2.393-2.008,5.157-2.008,8.219v6.092h-7.3v8.443h7.3v35.566h10.479V87.855h15.534v22.603
		c0,9.306,4.391,14.025,13.05,14.025c1.424,0,2.922-0.167,4.449-0.494c1.558-0.335,2.617-0.67,3.241-1.028l0.139-0.079v-8.525
		l-0.426,0.284c-0.567,0.38-1.277,0.689-2.107,0.921c-0.835,0.234-1.531,0.352-2.07,0.352c-2.029,0-3.53-0.547-4.461-1.625
		c-0.942-1.088-1.419-2.991-1.419-5.657V87.855H491.704z"/>
</g>
<rect x="11.704" y="41.496" fill="#F25022" width="48.7" height="48.7"/>
<rect x="65.474" y="41.496" fill="#7FBA00" width="48.699" height="48.699"/>
<rect x="11.704" y="95.286" fill="#00A4EF" width="48.699" height="48.699"/>
<rect x="65.474" y="95.286" fill="#FFB900" width="48.699" height="48.699"/>
</svg>
